<svg xmlns="http://www.w3.org/2000/svg" xmlns:xlink="http://www.w3.org/1999/xlink" width="156.709" height="41.458" viewBox="0 0 156.709 41.458"><defs><style>.a{fill:none;}.b{fill:#0038ae;}.c{clip-path:url(#a);}.d{fill:#e1001e;}.e{fill:#ffc400;}</style><clipPath id="a"><rect class="a" width="156.709" height="41.458"/></clipPath></defs><g transform="translate(78.355 20.729)"><g transform="translate(-78.355 -20.729)"><path class="b" d="M93.92,38.974H88V35.1h16.193v3.874H98.23V54.6H93.92Z" transform="translate(-49.693 -19.821)"/><rect class="b" width="4.31" height="19.489" transform="translate(58.505 15.279)"/><path class="b" d="M171.081,47.767l-.3-6.138V35.1h4.4V54.6H171.43l-9.664-12.493.131,6.4V54.6h-4.4V35.1h3.744Z" transform="translate(-88.94 -19.821)"/><g class="c"><path class="b" d="M229.769,36.889c0,6.355-4.266,10.23-10.534,10.23S208.7,43.244,208.7,36.889s4.31-10.23,10.534-10.23,10.534,3.874,10.534,10.23m-4.266,0a6.269,6.269,0,1,0-12.537,0,6.12,6.12,0,0,0,6.268,6.312,6.046,6.046,0,0,0,6.268-6.312M218.19,21l-4.179,3.918v.131h3.918l1.262-1.175,1.306,1.175h3.918v-.131L220.279,21Z" transform="translate(-117.852 -11.859)"/><path class="b" d="M283.091,51.643a10.236,10.236,0,0,1-7.487,2.873c-7.444,0-10.4-4.788-10.4-10.1S268.465,34.1,275.6,34.1a10.055,10.055,0,0,1,7.139,3L280,39.8a6.355,6.355,0,0,0-4.44-1.611c-4.44,0-6.138,3.439-6.138,6.268s1.567,6.051,6.138,6.051a7.4,7.4,0,0,0,4.788-1.872Z" transform="translate(-149.758 -19.256)"/><path class="b" d="M322.134,54.459c-6.225,0-10.534-3.874-10.534-10.23S315.91,34,322.134,34s10.534,3.874,10.534,10.23-4.31,10.23-10.534,10.23m0-16.542a6.312,6.312,0,0,0,0,12.624A6.046,6.046,0,0,0,328.4,44.23a6,6,0,0,0-6.268-6.312" transform="translate(-175.959 -19.2)"/><path class="d" d="M92.386,18.637a2.394,2.394,0,1,1-4.788,0A2.351,2.351,0,0,1,89.992,16.2a2.292,2.292,0,0,1,2.394,2.438m-2.394,1.741a1.561,1.561,0,0,0,1.654-1.7A1.654,1.654,0,0,0,89.992,16.9a1.591,1.591,0,0,0-1.654,1.785,1.611,1.611,0,0,0,1.654,1.7" transform="translate(-49.465 -9.148)"/><path class="d" d="M104.9,21.045h-.784L102.2,16.3h.827l1.48,3.831,1.524-3.831h.827Z" transform="translate(-57.712 -9.205)"/><path class="d" d="M121.286,18.637a2.394,2.394,0,0,1-4.788,0,2.351,2.351,0,0,1,2.394-2.438,2.292,2.292,0,0,1,2.394,2.438m-2.394,1.741a1.561,1.561,0,0,0,1.654-1.7,1.654,1.654,0,0,0-1.654-1.785,1.591,1.591,0,0,0-1.654,1.785,1.611,1.611,0,0,0,1.654,1.7" transform="translate(-65.785 -9.148)"/><path class="d" d="M134.821,17.163a1.437,1.437,0,0,0-1.175-.522c-.609,0-1.088.261-1.088.7s.522.566,1.132.653,1.872.392,1.872,1.437-.958,1.437-1.959,1.437a1.954,1.954,0,0,1-2-1.045l.609-.348a1.611,1.611,0,0,0,1.48.784c.566,0,1.175-.174,1.175-.784s-.522-.7-1.219-.784-1.828-.348-1.828-1.349.958-1.349,1.785-1.349a1.915,1.915,0,0,1,1.741.784Z" transform="translate(-74.314 -9.023)"/><path class="e" d="M25.718,31.094h0a31.255,31.255,0,0,1,7.574-3.744c0-7.139-4.527-13.451-7.531-13.451S18.1,20.081,18.1,27.177a28.774,28.774,0,0,1,7.618,3.918" transform="translate(-10.221 -7.849)"/><path class="e" d="M62.817,39.135,58.987,40.18a.5.5,0,1,1-.261-.958l3.831-1.045a.5.5,0,0,1,.261.958" transform="translate(-32.955 -21.549)"/><path class="b" d="M4.2,70.453l-2-.653a16.542,16.542,0,0,0,3.178,6.355,31.82,31.82,0,0,1,2.307-4.222c-1.045-.479-2.177-.958-3.439-1.437" transform="translate(-1.242 -39.416)"/><path class="b" d="M8.053,50.924c1.175.522,2.22,1,3.178,1.524a31.864,31.864,0,0,1,2.438-2.133A25.03,25.03,0,0,0,.13,45.7,23.55,23.55,0,0,0,0,48.268v.392a32.038,32.038,0,0,1,8.053,2.264" transform="translate(0 -25.807)"/><path class="b" d="M7.644,63.051a31.951,31.951,0,0,1,2.264-2.742L7.3,59.089A30.254,30.254,0,0,0,.2,57a30.383,30.383,0,0,0,.392,3.439,32.128,32.128,0,0,1,3.221,1c1.437.522,2.7,1.088,3.831,1.611" transform="translate(-0.113 -32.188)"/><path class="b" d="M43.272,61.182a32.125,32.125,0,0,0,.479-3.482,29.949,29.949,0,0,0-16.193,9.228A40.528,40.528,0,0,0,22.9,73.153a17.759,17.759,0,0,0,3.526.784,43.663,43.663,0,0,1,3.352-4.092,32.126,32.126,0,0,1,13.494-8.706" transform="translate(-12.932 -32.583)"/><path class="b" d="M15.212,65.624a42.137,42.137,0,0,1,5.05-6.747,32.387,32.387,0,0,1,17.8-10.012c0-.522.044-1.045.044-1.567s-.044-1.132-.087-1.7A31.821,31.821,0,0,0,12.6,63.883a12.58,12.58,0,0,0,2.089,1.48l.522.261" transform="translate(-7.115 -25.75)"/><path class="b" d="M38.881,78.561c-.958,1-1.741,2-2.481,2.917A14.931,14.931,0,0,0,50.33,70.9a29.644,29.644,0,0,0-11.448,7.661" transform="translate(-20.555 -40.037)"/><path class="e" d="M51.364,11.71l-2.177,1.654a.392.392,0,1,1-.435-.609L50.929,11.1a.392.392,0,1,1,.435.609" transform="translate(-27.379 -6.181)"/><path class="e" d="M58.465,24.381l-2.873,1.262a.449.449,0,1,1-.348-.827l2.873-1.262a.449.449,0,1,1,.348.827" transform="translate(-31.041 -13.281)"/><path class="e" d="M61.058,31.684l-3.439,1.132a.435.435,0,1,1-.261-.827L60.8,30.857a.435.435,0,1,1,.261.827" transform="translate(-32.198 -17.406)"/><path class="e" d="M55.3,17.63l-2.568,1.48a.4.4,0,1,1-.392-.7l2.525-1.48a.4.4,0,0,1,.392.7" transform="translate(-29.439 -9.533)"/><path class="e" d="M2.169,39.035,5.913,40.08a.5.5,0,1,0,.261-.958L2.387,38.077a.5.5,0,1,0-.261.958" transform="translate(-0.994 -21.492)"/><path class="e" d="M16.253,11.71l2.177,1.654a.392.392,0,1,0,.435-.609L16.688,11.1a.392.392,0,1,0-.435.609" transform="translate(-9.027 -6.181)"/><path class="e" d="M21.266,6.822l1.7,1.872a.392.392,0,0,0,.566-.522L21.788,6.3a.392.392,0,0,0-.566.522" transform="translate(-11.95 -3.513)"/><path class="e" d="M47.186,6.822l-1.7,1.872a.392.392,0,0,1-.566-.522L46.62,6.3a.392.392,0,0,1,.566.522" transform="translate(-25.334 -3.513)"/><path class="e" d="M26.94,2.719l1.219,2.133a.351.351,0,1,0,.609-.348L27.549,2.371a.351.351,0,0,0-.609.348" transform="translate(-15.187 -1.239)"/><path class="e" d="M41.773,2.775,40.511,4.908a.348.348,0,1,1-.609-.3L41.12,2.471a.351.351,0,1,1,.609.348" transform="translate(-22.49 -1.295)"/><path class="e" d="M34.8.348V2.873a.348.348,0,1,0,.7,0V.348a.348.348,0,1,0-.7,0" transform="translate(-19.651)"/><path class="e" d="M8.144,24.281l2.873,1.262a.449.449,0,1,0,.348-.827L8.492,23.454a.449.449,0,0,0-.348.827" transform="translate(-4.444 -13.225)"/><path class="e" d="M4.758,31.584l3.4,1.132a.435.435,0,1,0,.261-.827l-3.4-1.132a.435.435,0,1,0-.261.827" transform="translate(-2.494 -17.35)"/><path class="e" d="M11.936,17.63,14.5,19.11a.4.4,0,0,0,.392-.7l-2.568-1.48a.4.4,0,0,0-.392.7" transform="translate(-6.625 -9.533)"/><path class="d" d="M27.175,30.442a.435.435,0,0,1-.3.131.348.348,0,0,1-.348-.3H26l.348-.3v-.174s-.174-.087-.131-.218.218-.087.218-.087h0s-.131-.131-.044-.218.218.044.218.044h0s-.044-.174.087-.218.174.174.174.174h.044s.044-.218.218-.174.131.131.131.218a.2.2,0,0,0,.218.218h0a.871.871,0,0,1,.609.218,1.872,1.872,0,0,1,.392.566,2.916,2.916,0,0,1,.261,1.262V32.1a.218.218,0,0,0,.131.218,2.525,2.525,0,0,0,1.045.348,1.219,1.219,0,0,0,1.088-.479l1.7-2.22.348-.3a.261.261,0,0,1,.3.087c.435.609.044,1.175.3.958s.784-.392.74,0a2.089,2.089,0,0,1-.609.958c-.218.261-.044.218.044.174l.218-.087.827-.261a.062.062,0,1,1,.087.087,5.441,5.441,0,0,1-.7,1.567l-.261.218a.218.218,0,0,0,0,.3c.044.044.044.087,0,.174a1.088,1.088,0,0,1-.479.348.218.218,0,0,0-.087.348c.3.435.174,1-.218,1.741s-.74.74-.958.74l-.174.087a2.264,2.264,0,0,1-1.306.566L30.44,39.5l-.261.174L30,39.54l.479-1.915h-.3l-.435-.087L29.4,39.1l-.348-.218L29.4,37.32h0l-.566-.392h-.087c-2.133-.392-2.351-2-2.394-3.134a7.278,7.278,0,0,1,.871-3c.174-.3,0-.3,0-.3" transform="translate(-14.682 -16.425)"/></g></g></g></svg>