<svg xmlns="http://www.w3.org/2000/svg" xmlns:xlink="http://www.w3.org/1999/xlink" width="278.681" height="181.955" viewBox="0 0 278.681 181.955"><defs><style>.a{fill:none;}.b{fill:#fff;}.c{clip-path:url(#a);}</style><clipPath id="a"><rect class="a" width="278.681" height="181.955"/></clipPath></defs><g transform="translate(128.655 84.001)"><g transform="translate(-128.655 -84.001)"><path class="b" d="M.4,119.5v9.146H14.289v36.7H24.451v-36.7H38.34V119.5Z" transform="translate(0.052 15.437)"/><rect class="b" width="10.163" height="45.811" transform="translate(47.877 134.937)"/><path class="b" d="M95.243,149.31l-.678-14.453V119.5h10.276v45.845H96.033l-22.7-29.359.339,15.131v14.228H63.4V119.5h8.695Z" transform="translate(8.19 15.437)"/><g class="c"><path class="b" d="M159.158,144.063c0,14.905-10.05,24.051-24.729,24.051S109.7,158.968,109.7,144.063s10.05-24.051,24.729-24.051,24.729,9.146,24.729,24.051m-10.05,0c0-8.356-5.872-14.905-14.679-14.905s-14.679,6.549-14.679,14.905,5.985,14.792,14.679,14.792,14.679-6.323,14.679-14.792M131.945,106.8l-9.824,9.146v.339h9.372l3.049-2.71,3.049,2.71h9.146v-.339l-9.711-9.146Z" transform="translate(14.171 13.796)"/><path class="b" d="M202.918,159.915c-4.743,4.63-10.84,6.775-17.615,6.775-17.5,0-24.39-11.292-24.5-23.713s7.678-24.277,24.5-24.277a23.6,23.6,0,0,1,16.825,7.114l-6.436,6.323A14.905,14.905,0,0,0,185.3,128.3c-10.388,0-14.453,8.017-14.341,14.679s3.613,14.228,14.453,14.228a17.389,17.389,0,0,0,11.292-4.4Z" transform="translate(20.771 15.333)"/><path class="b" d="M227.729,166.6C213.05,166.6,203,157.457,203,142.551S213.05,118.5,227.729,118.5s24.729,9.146,24.729,24.051S242.408,166.6,227.729,166.6m0-38.844c-8.695,0-14.679,6.549-14.679,14.905s5.985,14.792,14.679,14.792,14.679-6.323,14.679-14.792-5.872-14.905-14.679-14.905" transform="translate(26.223 15.307)"/><path class="b" d="M11.292,108.059a5.307,5.307,0,0,1-5.646,5.646A5.42,5.42,0,0,1,0,108.059,5.533,5.533,0,0,1,5.646,102.3a5.42,5.42,0,0,1,5.646,5.759m-5.646,4.065a3.726,3.726,0,0,0,3.839-4.065,3.839,3.839,0,0,0-3.839-4.065c-2.6,0-3.952,1.807-3.952,4.178a3.839,3.839,0,0,0,3.952,4.065" transform="translate(-0.001 13.214)"/><path class="b" d="M19.636,113.566h-1.92L13.2,102.5h1.92l3.5,9.033,3.613-9.033h1.92Z" transform="translate(1.705 13.241)"/><path class="b" d="M37.392,108.059a5.307,5.307,0,0,1-5.646,5.646,5.42,5.42,0,0,1-5.646-5.646,5.533,5.533,0,0,1,5.646-5.759,5.42,5.42,0,0,1,5.646,5.759m-5.646,4.065a3.726,3.726,0,0,0,3.839-4.065,3.839,3.839,0,0,0-3.839-4.178c-2.6,0-3.952,1.807-3.952,4.178a3.839,3.839,0,0,0,3.839,4.065" transform="translate(3.371 13.214)"/><path class="b" d="M47.453,105.012a3.388,3.388,0,0,0-2.71-1.242c-1.468,0-2.6.565-2.6,1.694s1.242,1.355,2.71,1.581,4.4.9,4.4,3.388S47,113.82,44.743,113.82A4.855,4.855,0,0,1,40,111.336l1.355-.9a3.839,3.839,0,0,0,3.388,1.807c1.355,0,2.823-.452,2.823-1.807s-1.242-1.581-2.823-1.807-4.291-.9-4.291-3.162,2.258-3.162,4.291-3.162a4.517,4.517,0,0,1,4.065,1.807Z" transform="translate(5.167 13.212)"/><path class="b" d="M156.9,39.382l-9.6,2.6a1.242,1.242,0,1,1-.678-2.371l9.6-2.6a1.242,1.242,0,1,1,.678,2.371" transform="translate(18.804 4.768)"/><path class="b" d="M96.268,69.281,91.3,67.7a41.554,41.554,0,0,0,7.9,15.808,80.057,80.057,0,0,1,5.759-10.614,92.008,92.008,0,0,0-8.695-3.613" transform="translate(11.794 8.745)"/><path class="b" d="M109.312,57.411c2.936,1.242,5.646,2.6,8.017,3.839a80.164,80.164,0,0,1,6.21-5.307A62.782,62.782,0,0,0,89.439,44.2a59.282,59.282,0,0,0-.339,6.436v1.016a80.51,80.51,0,0,1,20.212,5.759" transform="translate(11.51 5.71)"/><path class="b" d="M108.044,70.331a80.176,80.176,0,0,1,5.646-6.888l-6.549-3.049A75.994,75.994,0,0,0,89.3,55.2a76.335,76.335,0,0,0,1.016,8.582,80.172,80.172,0,0,1,8.13,2.484c3.613,1.355,6.775,2.71,9.6,4.065" transform="translate(11.535 7.131)"/><path class="b" d="M162.452,64.595a80.962,80.962,0,0,0,1.242-8.695,75.2,75.2,0,0,0-40.65,23.261A101.968,101.968,0,0,0,111.3,94.744a44.828,44.828,0,0,0,8.92,1.92,109.645,109.645,0,0,1,8.356-10.275,80.623,80.623,0,0,1,33.875-21.793" transform="translate(14.377 7.221)"/><path class="b" d="M107.962,94.348A105.8,105.8,0,0,1,120.5,77.411a81.414,81.414,0,0,1,44.828-25.068c0-1.355.113-2.6.113-3.952s-.113-2.823-.226-4.291A79.946,79.946,0,0,0,101.3,90.057a31.391,31.391,0,0,0,5.307,3.726l1.355.677" transform="translate(13.086 5.697)"/><path class="b" d="M130.61,87.909a86.018,86.018,0,0,0-6.21,7.34A37.489,37.489,0,0,0,159.292,68.6,74.526,74.526,0,0,0,130.61,87.909" transform="translate(16.069 8.861)"/><path class="b" d="M143.191,12.49l-5.42,4.178a.926.926,0,1,1-1.129-1.468l5.42-4.178a.926.926,0,1,1,1.129,1.468" transform="translate(17.604 1.399)"/><path class="b" d="M151.128,24.936,143.9,28.1a1.129,1.129,0,1,1-.9-2.033l7.227-3.162a1.129,1.129,0,0,1,.9,2.033" transform="translate(18.361 2.954)"/><path class="b" d="M154.46,32.049l-8.582,2.823a1.129,1.129,0,1,1-.678-2.145l8.582-2.823a1.129,1.129,0,0,1,.678,2.145" transform="translate(18.642 3.859)"/><path class="b" d="M147.513,18.222l-6.436,3.726a1.036,1.036,0,1,1-1.016-1.807l6.436-3.726a1.036,1.036,0,0,1,1.016,1.807" transform="translate(18.024 2.103)"/><path class="b" d="M91.82,39.282l9.485,2.6a1.242,1.242,0,0,0,.677-2.371l-9.485-2.6a1.242,1.242,0,1,0-.678,2.371" transform="translate(11.726 4.755)"/><path class="b" d="M105.241,12.49l5.42,4.178a.926.926,0,0,0,1.129-1.468l-5.42-4.178a.926.926,0,1,0-1.129,1.468" transform="translate(13.548 1.399)"/><path class="b" d="M109.828,7.476l4.291,4.63a.919.919,0,0,0,1.355-1.242l-4.291-4.63a.919.919,0,1,0-1.355,1.242" transform="translate(14.156 0.767)"/><path class="b" d="M138.373,7.576l-4.291,4.63a.919.919,0,0,1-1.355-1.242l4.291-4.63a.919.919,0,1,1,1.355,1.242" transform="translate(17.114 0.78)"/><path class="b" d="M115.316,3.429l3.049,5.42a.9.9,0,1,0,1.468-.9l-3.162-5.42a.9.9,0,0,0-1.468.9" transform="translate(14.878 0.298)"/><path class="b" d="M132.565,3.429,129.4,8.849a.9.9,0,1,1-1.468-.9l3.162-5.42a.9.9,0,0,1,1.468.9" transform="translate(16.486 0.298)"/><path class="b" d="M122.806.939V7.263a.9.9,0,1,0,1.694,0V.939a.9.9,0,1,0-1.694,0" transform="translate(15.856 -0.036)"/><path class="b" d="M97.357,24.836,104.584,28a1.129,1.129,0,0,0,.9-2.033L98.26,22.8a1.129,1.129,0,0,0-.9,2.033" transform="translate(12.512 2.941)"/><path class="b" d="M94.2,31.955l8.582,2.823a1.129,1.129,0,0,0,.678-2.145L94.879,29.81a1.129,1.129,0,1,0-.678,2.145" transform="translate(12.054 3.84)"/><path class="b" d="M101.06,18.222l6.436,3.726a1.036,1.036,0,0,0,1.016-1.807l-6.436-3.726a1.036,1.036,0,1,0-1.016,1.807" transform="translate(12.986 2.103)"/><path class="b" d="M123.776,50.685l-1.355-1.016H122.2c-5.307-.9-5.872-4.968-6.1-7.791s1.694-6.775,2.145-7.565,0-.79,0-.79a1.016,1.016,0,0,1-.79.339.9.9,0,0,1-.9-.79h-1.242l.9-.678v-.452s-.452-.226-.339-.452.565-.226.565-.226h0s-.339-.339-.113-.565.565.113.565.113h0s-.113-.452.226-.565.452.452.452.452h.113s.113-.565.565-.452.339.339.339.565a.527.527,0,0,0,.565.565h0a2.258,2.258,0,0,1,1.468.565,4.629,4.629,0,0,1,1.016,1.468,7.339,7.339,0,0,1,.678,3.162v1.355a.565.565,0,0,0,.339.565,6.436,6.436,0,0,0,2.71.79,3.049,3.049,0,0,0,2.823-1.242l4.291-5.533.79-.79a.565.565,0,0,1,.79.226c1.016,1.468.113,2.936.79,2.484s2.033-1.016,1.807,0a5.2,5.2,0,0,1-1.468,2.371c-.565.678-.113.565.113.452l.565-.226,2.033-.565a.16.16,0,1,1,.226.226,13.776,13.776,0,0,1-1.807,3.839l-.678.565a.565.565,0,0,0,0,.79.212.212,0,0,1,0,.339,2.823,2.823,0,0,1-1.129.9.565.565,0,0,0-.226.9c.79,1.129.452,2.484-.565,4.4s-1.92,1.92-2.371,1.92l-.452.226a5.646,5.646,0,0,1-3.275,1.468L126.374,56.9a78.025,78.025,0,0,1,18.293-9.033c0-17.954-11.292-33.762-18.97-33.762s-19.2,15.583-19.2,33.311a71.816,71.816,0,0,1,16.26,7.9Z" transform="translate(13.757 1.821)"/><path class="b" d="M123.833,47.226,122.7,47l-.9,3.952,1.468,1.016,1.242-4.743h-.79" transform="translate(15.734 6.071)"/></g></g></g></svg>